<svg width="23" height="22" viewBox="0 0 23 22" fill="none" xmlns="http://www.w3.org/2000/svg">
<path fill-rule="evenodd" clip-rule="evenodd" d="M6.6575 3.74346C7.27896 3.73242 7.89954 3.79336 8.5057 3.92496C9.01605 4.03154 9.5006 4.22987 9.93359 4.5094C10.3335 4.78737 10.6499 5.16106 10.851 5.59298C11.0822 6.12409 11.1938 6.69586 11.1784 7.27098C11.2046 7.90247 11.036 8.52739 10.6936 9.06786C10.3333 9.57832 9.83527 9.98599 9.25237 10.2476C10.0434 10.4516 10.7324 10.9189 11.1954 11.5654C11.64 12.2503 11.8634 13.0455 11.8378 13.8514C11.8524 14.4939 11.7135 15.1311 11.4317 15.7145C11.1712 16.2234 10.7897 16.6669 10.3178 17.0095C9.83203 17.3484 9.28534 17.5991 8.70494 17.7492C8.10304 17.9084 7.48124 17.9884 6.85674 17.9869H0V3.74346H6.6575ZM6.26186 9.50438C6.75015 9.52363 7.23082 9.38381 7.62524 9.10779C7.81413 8.94694 7.96107 8.74606 8.05431 8.5212C8.14756 8.29634 8.18452 8.05373 8.16224 7.81277C8.17488 7.53133 8.1163 7.25114 7.99146 6.996C7.88557 6.79286 7.72092 6.62308 7.51708 6.50685C7.31062 6.3789 7.07867 6.29331 6.83587 6.25547C6.57242 6.20665 6.30435 6.18445 6.03606 6.18922H3.10626V9.51708H6.26186V9.50438ZM6.43264 15.5684C6.72794 15.5722 7.02263 15.5418 7.31025 15.4777C7.57309 15.4221 7.82237 15.3189 8.04459 15.1736C8.2623 15.0284 8.43818 14.833 8.55598 14.6055C8.69256 14.3155 8.75532 13.9985 8.73909 13.6808C8.76871 13.3912 8.72861 13.099 8.62187 12.8265C8.51514 12.5541 8.34461 12.3086 8.12334 12.109C7.65437 11.7786 7.07964 11.6149 6.4981 11.6461H3.10626V15.5684H6.43264Z" fill="white"/>
<path fill-rule="evenodd" clip-rule="evenodd" d="M16.2618 15.5157C16.5056 15.7319 16.7928 15.8983 17.106 16.0051C17.4191 16.1118 17.7517 16.1565 18.0835 16.1364C18.6094 16.1492 19.1252 15.9961 19.5512 15.7008C19.8978 15.4853 20.1603 15.1662 20.2979 14.7933H22.7751C22.5112 15.855 21.8666 16.7945 20.9535 17.4487C20.0775 18.0049 19.0423 18.2865 17.9914 18.2546C17.2414 18.264 16.4971 18.1291 15.8026 17.858C15.1744 17.6074 14.611 17.2286 14.1518 16.7481C13.6943 16.2446 13.3428 15.6613 13.1167 15.0302C12.8629 14.3248 12.7387 13.5827 12.7495 12.8367C12.7449 12.1033 12.8733 11.3746 13.129 10.6832C13.4726 9.71042 14.1295 8.86677 15.0054 8.27329C15.8814 7.67982 16.9314 7.36703 18.0047 7.37981C18.7972 7.36396 19.5808 7.54136 20.2818 7.89528C20.9154 8.22761 21.462 8.69304 21.8804 9.25655C22.3085 9.84785 22.6153 10.5115 22.7846 11.2123C22.9703 11.9647 23.0365 12.7397 22.981 13.511H15.6024C15.5427 14.2357 15.779 14.9543 16.2618 15.5157ZM19.499 10.0987C19.2926 9.90118 19.0442 9.74826 18.7707 9.65026C18.4973 9.55226 18.205 9.51147 17.9136 9.53062C17.5271 9.51652 17.1434 9.59844 16.7998 9.76839C16.5274 9.91182 16.287 10.1048 16.092 10.3365C15.9192 10.5537 15.7905 10.8 15.7125 11.0625C15.6422 11.2815 15.5983 11.5074 15.5816 11.7359H20.1518C20.112 11.1402 19.8851 10.57 19.5009 10.0996L19.499 10.0987Z" fill="white"/>
<path d="M14.9924 4.69449H20.7192V6.09478H14.9924V4.69449Z" fill="white"/>
</svg>
