<svg width="57" height="16" viewBox="0 0 57 16" fill="none" xmlns="http://www.w3.org/2000/svg">
<path d="M8.17612 15.7095H6.76069C-0.194656 15.1662 -2.33418 5.89995 2.95541 1.92272C6.09707 -0.439533 10.7163 0.13075 13.2649 3.0387L11.5362 4.72087C10.0384 3.07147 7.65782 2.36026 5.51578 3.23207C1.4879 4.87163 1.45934 11.2414 5.46874 12.917C7.2479 13.6602 9.31098 13.3169 10.7894 12.1337C11.0717 11.9076 11.3077 11.6355 11.595 11.4151L13.3011 13.1014C12.2183 14.2993 10.8096 15.1818 9.1959 15.5341C8.87333 15.6046 8.50624 15.6849 8.17864 15.7086L8.17612 15.7095Z" fill="white"/>
<path d="M56.988 15.5123H54.4932V9.19991C54.3873 7.66113 53.4667 6.97531 51.8975 7.36287C50.9878 7.58738 50.1108 8.44035 50.1108 9.39655V15.5132H47.5823V0H50.1108V5.67333C51.2683 4.87608 52.7157 4.65731 54.0807 5.04159C55.8573 5.54223 56.8292 7.05807 56.9569 8.80251L56.988 8.85495V15.5123Z" fill="white"/>
<path d="M23.1434 15.709C20.9307 15.5263 19.5573 13.7237 19.4338 11.6605L19.4355 5.05062H21.8791L21.9312 5.1637C22.0354 7.21131 21.7859 9.39821 21.9295 11.4286C22.0463 13.0805 23.224 13.6876 24.794 13.1337C25.5945 12.851 26.3111 11.9833 26.3111 11.1336V5.09897L26.3615 5.0498H28.8051V15.5115H26.3102V14.9216C26.175 14.9634 26.0649 15.0674 25.9398 15.1354C25.4299 15.4132 24.7721 15.6566 24.1867 15.709C23.9136 15.7336 23.4164 15.732 23.1417 15.709H23.1434Z" fill="white"/>
<path d="M42.6269 15.7093H41.6827C34.5249 15.1169 34.9718 4.51504 42.4094 4.85262C43.9541 4.92226 45.3183 5.59825 46.4019 6.64131L44.6614 8.32511C44.3674 8.16042 44.1389 7.9015 43.8374 7.72615C42.0859 6.70604 39.6037 7.43036 39.1098 9.45093C38.5713 11.655 40.2665 13.6019 42.6059 13.2782C43.4157 13.166 44.0667 12.7514 44.632 12.2007L46.3994 13.8936C46.4087 13.9345 46.3734 13.9485 46.3507 13.9714C45.4183 14.9276 43.9861 15.6159 42.6261 15.7093H42.6269Z" fill="white"/>
<path d="M34.2002 5.05038H36.1726L36.223 5.09955V7.34626H34.2002V15.5121H31.6717V7.34626H29.9531V5.05038H31.6717V1.59018L31.723 1.54102H34.1498L34.2002 1.59018V5.05038Z" fill="white"/>
<path d="M17.3453 0H14.8504V15.5123H17.3453V0Z" fill="white"/>
<path d="M41.9467 8.47102C44.1652 8.335 44.6659 11.5281 42.5196 12.0451C39.8568 12.6867 39.2587 8.63571 41.9467 8.47102Z" fill="#EF4234"/>
</svg>
