<svg width="23" height="22" viewBox="0 0 23 22" fill="none" xmlns="http://www.w3.org/2000/svg">
<g clip-path="url(#clip0_127_83)">
<path d="M11.5 0C17.8513 0 23 4.92487 23 11C23 16.624 18.5874 21.2616 12.8932 21.9194V14.3614L16.0042 14.3614L16.6495 11H12.8932V9.81116C12.8932 8.92299 13.0754 8.30811 13.4932 7.91526C13.9111 7.52241 14.5646 7.3516 15.5075 7.3516C15.7461 7.3516 15.9657 7.35387 16.1606 7.35841C16.4441 7.36502 16.6752 7.37642 16.836 7.39261V4.34544C16.7718 4.32835 16.6959 4.31127 16.6108 4.29446C16.4182 4.25636 16.1788 4.21964 15.9214 4.18739C15.3835 4.11999 14.7672 4.07211 14.3361 4.07211C12.5948 4.07211 11.2788 4.42844 10.3603 5.16651C9.25164 6.05725 8.72187 7.50403 8.72187 9.55156V11H6.35048V14.3614H8.72187V21.6761C3.71289 20.4874 0 16.1588 0 11C0 4.92487 5.14873 0 11.5 0Z" fill="white"/>
</g>
<defs>
<clipPath id="clip0_127_83">
<rect width="23" height="22" fill="white"/>
</clipPath>
</defs>
</svg>
