<svg width="23" height="22" viewBox="0 0 23 22" fill="none" xmlns="http://www.w3.org/2000/svg">
<path d="M17.6287 6.43695C16.8671 6.43837 16.2479 5.84852 16.2464 5.12003C16.2449 4.39153 16.8616 3.79919 17.6235 3.79777C18.3855 3.79634 19.0047 4.38654 19.0062 5.11503C19.0074 5.84353 18.3907 6.43552 17.6287 6.43695Z" fill="white"/>
<path fill-rule="evenodd" clip-rule="evenodd" d="M11.511 16.6476C8.25037 16.6537 5.60156 14.1303 5.59523 11.0107C5.58889 7.89179 8.22763 5.35774 11.4883 5.35169C14.7496 5.34563 17.3988 7.87041 17.4052 10.989C17.4115 14.1086 14.772 16.6415 11.511 16.6476ZM11.4924 7.33366C9.376 7.33722 7.66278 8.98203 7.6665 11.0068C7.6706 13.0319 9.39053 14.6703 11.5069 14.6663C13.624 14.6624 15.3372 13.018 15.3331 10.9929C15.329 8.96777 13.6091 7.32974 11.4924 7.33366Z" fill="white"/>
<path fill-rule="evenodd" clip-rule="evenodd" d="M3.94757 0.592606C4.67788 0.318886 5.51361 0.131415 6.73723 0.0761734C7.96385 0.0198666 8.35544 0.00703177 11.4778 0.00133157C14.601 -0.00436863 14.9926 0.00702957 16.2192 0.059064C17.4432 0.109673 18.2793 0.294295 19.0111 0.565165C19.7682 0.844226 20.4106 1.21988 21.0507 1.82969C21.6908 2.44021 22.085 3.05252 22.3805 3.77566C22.6663 4.47493 22.8623 5.27364 22.9204 6.44479C22.9785 7.61771 22.9927 7.99193 22.9986 10.979C23.0046 13.9656 22.9919 14.3406 22.9383 15.5146C22.885 16.6847 22.6924 17.4848 22.4092 18.1844C22.1167 18.9086 21.7247 19.5231 21.0872 20.1354C20.4497 20.748 19.8088 21.1248 19.0528 21.4077C18.3218 21.6808 17.4868 21.8682 16.2632 21.9242C15.0366 21.9798 14.6449 21.993 11.5214 21.9987C8.3994 22.0044 8.00781 21.993 6.78121 21.9413C5.55721 21.89 4.72072 21.7057 3.9893 21.4352C3.23218 21.1551 2.58982 20.7805 1.94969 20.1703C1.30919 19.5601 0.91462 18.9475 0.619523 18.2243C0.333363 17.5254 0.138103 16.7264 0.0796113 15.5563C0.0211177 14.3826 0.0073361 14.0077 0.0013791 11.021C-0.0046009 8.03399 0.00770181 7.65977 0.0613493 6.48648C0.115383 5.31534 0.307277 4.51556 0.590457 3.81522C0.882939 3.09136 1.27491 2.47728 1.91319 1.86462C2.5507 1.25232 3.19157 0.874516 3.94757 0.592606ZM4.73564 19.5872C5.1414 19.7366 5.75022 19.9148 6.87139 19.9615C8.08457 20.0117 8.44784 20.0228 11.5177 20.017C14.5887 20.0117 14.952 19.9992 16.1648 19.9447C17.2848 19.8937 17.8936 19.7134 18.2983 19.5623C18.8352 19.3616 19.2175 19.1218 19.6191 18.7372C20.0208 18.3512 20.2694 17.9845 20.4773 17.4709C20.6337 17.0824 20.8197 16.4997 20.8685 15.4273C20.9218 14.2675 20.9329 13.9197 20.927 10.9825C20.9214 8.04611 20.9084 7.69826 20.8506 6.53816C20.7977 5.46644 20.6095 4.88408 20.4512 4.49738C20.2414 3.98309 19.9914 3.61813 19.5882 3.23357C19.1851 2.849 18.8017 2.61199 18.264 2.41312C17.859 2.26308 17.2494 2.08558 16.129 2.0389C14.9158 1.98793 14.5522 1.97759 11.4816 1.9833C8.4117 1.989 8.04843 2.00076 6.83561 2.05565C5.71483 2.10661 5.10674 2.28659 4.70134 2.43807C4.1648 2.63872 3.78251 2.87716 3.38048 3.26315C2.97918 3.64913 2.73066 4.01516 2.52275 4.52981C2.36702 4.91759 2.17958 5.50066 2.13153 6.57238C2.07861 7.73283 2.06744 8.08068 2.0734 11.0171C2.07899 13.9542 2.09203 14.3021 2.14904 15.4615C2.20157 16.5339 2.39121 17.1155 2.54884 17.5037C2.75861 18.0165 3.00863 18.3822 3.41141 18.7668C3.81494 19.1499 4.19834 19.3883 4.73564 19.5872Z" fill="white"/>
</svg>
