<svg width="59" height="16" viewBox="0 0 59 16" fill="none" xmlns="http://www.w3.org/2000/svg">
<path fill-rule="evenodd" clip-rule="evenodd" d="M17.5247 6.24466C17.0653 5.74748 16.5174 5.36429 15.8814 5.09511C15.2455 4.82592 14.5522 4.69163 13.8033 4.69163C13.0543 4.69163 12.3616 4.82592 11.7251 5.09511C11.0892 5.36429 10.5406 5.74748 10.0818 6.24466C9.62245 6.74185 9.2657 7.33931 9.01097 8.03644C8.75623 8.73417 8.62917 9.50352 8.62917 10.3457C8.62917 11.1879 8.75623 11.9751 9.01097 12.6657C9.26509 13.3563 9.62245 13.9495 10.0818 14.4467C10.5412 14.9439 11.0892 15.3271 11.7251 15.5963C12.361 15.8655 13.0537 16.0004 13.8033 16.0004C14.5528 16.0004 15.2449 15.8655 15.8814 15.5963C16.5174 15.3271 17.0653 14.9439 17.5247 14.4467C17.9841 13.9495 18.3408 13.3563 18.5955 12.6657C18.8497 11.9751 18.9773 11.2022 18.9773 10.3457C18.9773 9.4892 18.8503 8.73357 18.5955 8.03644C18.3408 7.33931 17.9841 6.74185 17.5247 6.24466ZM16.0824 13.2357C15.5241 13.9472 14.7642 14.3023 13.8026 14.3023C12.8411 14.3023 12.0812 13.9472 11.5235 13.2357C10.9645 12.5242 10.686 11.5615 10.686 10.3463C10.686 9.13108 10.9651 8.16835 11.5235 7.45689C12.0818 6.74603 12.8417 6.3903 13.8026 6.3903C14.7635 6.3903 15.5235 6.74603 16.0824 7.45689C16.6408 8.16835 16.9199 9.13168 16.9199 10.3463C16.9199 11.5609 16.6408 12.5248 16.0824 13.2357ZM25.0793 4.76385C24.86 4.74296 24.6658 4.73281 24.4966 4.73281C23.634 4.73281 22.8564 4.80503 22.1643 4.95007C21.4715 5.09511 20.8918 5.25029 20.4257 5.41622V15.7312H22.3976V6.67977C22.5106 6.65232 22.7476 6.60039 23.1081 6.52459C23.4685 6.44879 23.8325 6.41059 24.2003 6.41059C24.7653 6.41059 25.2284 6.44879 25.5894 6.52459C25.9498 6.60099 26.2076 6.66664 26.3634 6.72155V4.95962C26.1868 4.925 25.9394 4.88203 25.7275 4.84741C25.5155 4.81339 25.2999 4.78534 25.0806 4.76445L25.0793 4.76385ZM30.893 14.1405C30.6389 14.0576 30.4171 13.8594 30.2473 13.6589C30.0775 13.4589 29.9504 13.1826 29.8655 12.8304C29.7806 12.4783 29.7385 12.033 29.7385 11.4941V6.5228H33.0213V4.9071H29.7385L29.7415 1.52051L27.7666 1.97353V11.5143C27.7666 12.233 27.8264 12.8644 27.9468 13.4094C28.0665 13.9549 28.2711 14.4306 28.568 14.8031C28.8649 15.1761 29.2388 15.4823 29.7262 15.6685C30.2626 15.8881 31.6089 16.1478 33.0237 15.8326V14.1423C31.8912 14.396 31.1477 14.2223 30.893 14.1393V14.1405ZM6.71104 10.7605C6.42148 10.5116 6.07145 10.2944 5.66156 10.1081C5.25166 9.92192 4.78496 9.73212 4.26205 9.53874C3.86621 9.40086 3.52656 9.26955 3.24434 9.14541C2.96151 9.02126 2.72449 8.88697 2.5339 8.74193C2.3433 8.59689 2.20158 8.43455 2.10995 8.25489C2.01771 8.07583 1.97189 7.86872 1.97189 7.63356C1.97189 7.17815 2.17654 6.84331 2.58704 6.62904C2.99694 6.41536 3.47769 6.30793 4.0287 6.30793C4.66462 6.30793 5.2089 6.36702 5.66156 6.484C6.1136 6.60159 6.44592 6.71559 6.65789 6.82601L6.65606 5.05572C6.65606 5.05572 6.58459 5.03602 6.54121 5.02408C6.33596 4.96917 6.09955 4.91724 5.83077 4.8689C5.56199 4.82055 5.27243 4.77937 4.9615 4.74475C4.65057 4.71073 4.33963 4.69342 4.0287 4.69342C2.78435 4.69342 1.80207 4.97275 1.08124 5.53201C0.360414 6.08948 0 6.8457 0 7.79829C0 8.28175 0.0849112 8.68881 0.254733 9.02007C0.424556 9.35132 0.649967 9.63483 0.933412 9.8694C1.21625 10.1046 1.55161 10.3081 1.94074 10.4806C2.32925 10.6531 2.73609 10.8226 3.16004 10.9879C4.03664 11.3329 4.66584 11.6439 5.04702 11.9202C5.42882 12.1966 5.61941 12.5696 5.61941 13.0387C5.61941 13.5079 5.42515 13.826 5.03603 14.0331C4.6469 14.2402 4.05008 14.3542 3.24434 14.3542C2.42333 14.3429 1.86072 14.2957 1.27245 14.1053C0.77092 13.937 0.428221 13.8206 0.190592 13.7323L0.191814 15.5199C0.379351 15.5802 0.678678 15.6721 0.954181 15.7515C1.56505 15.9156 2.26878 15.9795 3.24434 15.9795C4.64385 15.9795 5.72142 15.724 6.47768 15.2131C7.23394 14.7022 7.61207 13.9495 7.61207 12.9552C7.61207 12.4443 7.53449 12.0127 7.37872 11.6606C7.22295 11.3084 7.00059 11.0082 6.71043 10.7599L6.71104 10.7605Z" fill="white"/>
<path fill-rule="evenodd" clip-rule="evenodd" d="M37.0001 13.8878C36.873 13.7636 36.7808 13.5977 36.7246 13.3906C36.6678 13.1835 36.6397 12.9214 36.6397 12.6033V0L34.6678 0.442274V12.9143C34.6678 13.9361 34.9219 14.6888 35.4308 15.1722C35.9396 15.6557 36.9292 15.9547 38.2933 15.9702V14.3223C37.9824 14.2811 37.7209 14.2292 37.5089 14.1671C37.297 14.105 37.1272 14.0119 37.0001 13.8878ZM40.1638 15.7309H42.1357V4.96051H40.1638V15.7315V15.7309ZM50.7374 10.7602C50.4478 10.5113 50.0978 10.2941 49.6879 10.1078C49.278 9.92162 48.8113 9.73182 48.2884 9.53844C47.8925 9.40056 47.5529 9.26925 47.2707 9.1451C46.9878 9.02096 46.7508 8.88666 46.5602 8.74163C46.3696 8.59659 46.2279 8.43424 46.1363 8.25459C46.044 8.07553 45.9982 7.86842 45.9982 7.63326C45.9982 7.17785 46.2029 6.84301 46.6134 6.62874C47.0233 6.41506 47.504 6.30763 48.055 6.30763C48.691 6.30763 49.2352 6.36672 49.6879 6.4837C50.1399 6.60128 50.4723 6.71528 50.6842 6.8257L50.683 5.0572C50.683 5.0572 50.6073 5.03393 50.5682 5.02378C50.3629 4.96887 50.1259 4.91694 49.8577 4.8686C49.5889 4.82025 49.2994 4.77907 48.9884 4.74445C48.6775 4.71043 48.3666 4.69312 48.0556 4.69312C46.8113 4.69312 45.829 4.97245 45.1082 5.53171C44.3874 6.09097 44.0263 6.84719 44.0263 7.79978C44.0263 8.28324 44.1112 8.6903 44.2811 9.02155C44.4509 9.35281 44.6769 9.63632 44.9598 9.87089C45.242 10.1061 45.578 10.3096 45.9671 10.4821C46.3556 10.6546 46.7624 10.8241 47.1864 10.9894C48.0624 11.3344 48.6922 11.6454 49.0734 11.9217C49.4552 12.198 49.6457 12.5711 49.6457 13.0402C49.6457 13.5094 49.4515 13.8275 49.0624 14.0346C48.6732 14.2417 48.0764 14.3557 47.2707 14.3557C46.4497 14.3444 45.8871 14.2972 45.2988 14.1068C44.7973 13.9385 44.4546 13.8221 44.2175 13.7338L44.2188 15.5214C44.4057 15.5817 44.7056 15.6736 44.9811 15.753C45.592 15.9171 46.2957 15.981 47.2713 15.981C48.6708 15.981 49.7484 15.7255 50.5046 15.2146C51.2609 14.7037 51.639 13.951 51.639 12.9567C51.639 12.4457 51.5608 12.0142 51.4057 11.6621C51.2499 11.3099 51.0275 11.0097 50.7374 10.7614V10.7602ZM56.052 14.1402C55.7978 14.0573 55.5761 13.8591 55.4063 13.6586C55.2364 13.4586 55.1094 13.1823 55.0245 12.8301C54.9396 12.478 54.8974 12.0327 54.8974 11.4938V6.5225H58.1802V4.90679H54.8974V1.57213L52.9255 1.90339V11.514C52.9255 12.2327 52.9854 12.8641 53.1057 13.4091C53.2255 13.9546 53.4301 14.4303 53.727 14.8028C54.0239 15.1758 54.3977 15.482 54.8852 15.6682C55.4215 15.8878 56.7679 16.1475 58.1827 15.8323V14.142C57.0501 14.3957 56.3067 14.222 56.052 14.139V14.1402ZM41.1491 1.23013C40.829 1.23013 40.5572 1.33339 40.3336 1.5393C40.1094 1.74582 39.9976 2.02396 39.9976 2.37372C39.9976 2.72348 40.1094 3.00161 40.3336 3.20813C40.5572 3.41464 40.8296 3.5179 41.1491 3.5179C41.4686 3.5179 41.7411 3.41464 41.9646 3.20813C42.1882 3.00221 42.3006 2.72407 42.3006 2.37372C42.3006 2.02336 42.1882 1.74582 41.9646 1.5393C41.7405 1.33279 41.4686 1.23013 41.1491 1.23013Z" fill="white"/>
</svg>
