<svg width="23" height="22" viewBox="0 0 23 22" fill="none" xmlns="http://www.w3.org/2000/svg">
<g clip-path="url(#clip0_127_95)">
<path fill-rule="evenodd" clip-rule="evenodd" d="M21.7988 4.43127C22.1556 4.7748 22.4119 5.20196 22.5419 5.67C23.0228 7.3975 23.0228 11 23.0228 11C23.0228 11 23.0228 14.6025 22.5419 16.33C22.4119 16.798 22.1556 17.2252 21.7988 17.5687C21.4419 17.9123 20.997 18.1601 20.5085 18.2875C18.7103 18.75 11.5228 18.75 11.5228 18.75C11.5228 18.75 4.33533 18.75 2.53715 18.2875C2.04868 18.1601 1.60375 17.9123 1.24689 17.5687C0.890038 17.2252 0.63377 16.798 0.503736 16.33C0.0228272 14.6025 0.0228271 11 0.0228271 11C0.0228271 11 0.0228272 7.3975 0.503736 5.67C0.63377 5.20196 0.890038 4.7748 1.24689 4.43127C1.60375 4.08773 2.04868 3.83988 2.53715 3.7125C4.33533 3.25 11.5228 3.25 11.5228 3.25C11.5228 3.25 18.7103 3.25 20.5085 3.7125C20.997 3.83988 21.4419 4.08773 21.7988 4.43127ZM15.1819 11L9.17057 7.72878V14.2713L15.1819 11Z" fill="white"/>
</g>
<defs>
<clipPath id="clip0_127_95">
<rect width="23" height="22" fill="white"/>
</clipPath>
</defs>
</svg>
